<?xml version="1.0" encoding="UTF-8"?>
<svg xmlns="http://www.w3.org/2000/svg" version="1.1" viewBox="0 0 160.4 150">
  <defs>
    <style>
      .cls-1 {
        fill: #fff;
      }
    </style>
  </defs>
  <g>
    <g id="Warstwa_1">
      <g>
        <path class="cls-1" d="M152.9,5.4l-31.4,17.7c-.8.5-1.7,1-2.4,1.6-8.2,6.4-10.7,18-5.3,27.3,1.2,2.1,2.1,4.3,2.7,6.6.6,2.3,1,4.7,1,7.2h0c.1,4.2-.5,8.6-1.9,13.2-6.1,20.8-26.9,44.5-56.6,61.6-2.5,1.5-5,2.8-7.6,4.1.5-.8,1.1-1.6,1.6-2.3,2.3-3.4,4.3-6.8,6.2-10.1h0c1.5-2.7,2.8-5.4,4-8,0,0,0,0,0,0,19.4-19.5,28.1-40.6,20-54.6-1.3-2.2-2.9-4.2-4.9-5.9-10.4-8.8-30-10.1-52.3-4.1,0,0,0,0,0,0-2.9-.3-5.8-.5-8.9-.6h0c-3.8,0-7.8,0-11.8.3,10.2-4.2,20.2-7.1,29.7-8.7h0c17.8-3,33.5-1.3,44.1,5.1,4.4,2.6,7.9,6.1,10.3,10.3,8.4,14.6,2.3,35.2-13.9,54.9,17.3-13.7,29.3-29.3,33.5-43.1,2-6.4,2.3-12.5.7-17.8-.5-1.6-1.1-3.1-2-4.5-2.5-4.3-3.8-9-3.9-13.6h0c-.2-6.3,1.6-12.5,5.2-17.6-2.8.5-5.6,1.4-8.2,2.9-4.1,2.4-7.2,5.7-9.3,9.7-1.1,2-1.9,4.1-2.4,6.3-.2.7-.3,1.4-.4,2-.2-.7-.4-1.5-.6-2.2-.4-2.3-.5-4.6-.2-6.9.9-6.2,4.5-12,10.4-15.4,4.2-2.5,9-3.3,13.5-2.7,1.7.2,5.2,2.3,9.1,2.2,2.6,0,29.6-16.6,32-15h0Z"/>
        <path class="cls-1" d="M71.8,66c3.3,1.9,5.3,5.4,5.3,9.2,0,8.2-4.5,18.1-12.6,28.1h0c0,0,0-.2,0-.2,4.3-8.8,5.2-16.9,1.8-23.1,0-.2-.2-.3-.3-.5s-.2-.3-.3-.5c-3.8-6-11.2-9.3-20.9-9.9h0c-3.6-1.9-7.7-3.4-12.1-4.5,16.3-4,30.4-3.6,39,1.5h0Z"/>
      </g>
    </g>
  </g>
</svg>