<?xml version="1.0" encoding="UTF-8"?>
<svg xmlns="http://www.w3.org/2000/svg" version="1.1" viewBox="0 0 456.76 150.77">
  <defs>
    <style>
      .cls-1 {
        fill: #3c3c3b;
      }

      .cls-2 {
        fill: #009fe3;
      }
    </style>
  </defs>
  <!-- Generator: Adobe Illustrator 28.7.1, SVG Export Plug-In . SVG Version: 1.2.0 Build 142)  -->
  <g>
    <g id="Warstwa_1">
      <path class="cls-1" d="M154.21,7.11l-30.77,17.38c-.84.48-1.62,1.01-2.36,1.59-8.07,6.25-10.48,17.68-5.24,26.76,1.18,2.04,2.06,4.2,2.66,6.47.62,2.23.95,4.58,1,7.02h0c.12,4.13-.5,8.46-1.83,12.94-6.02,20.45-26.41,43.67-55.5,60.46-2.48,1.43-4.96,2.78-7.45,4.05.54-.76,1.06-1.52,1.57-2.29,2.25-3.33,4.27-6.63,6.07-9.91h.01c1.46-2.65,2.76-5.27,3.9-7.86,0,0,.01,0,0-.02,19.07-19.09,27.53-39.85,19.62-53.56-1.27-2.19-2.89-4.1-4.85-5.75-10.25-8.68-29.44-9.9-51.34-4.05,0-.01-.02,0-.02,0-2.81-.31-5.73-.49-8.75-.55h-.01c-3.74-.07-7.61.02-11.61.31,9.99-4.12,19.84-6.97,29.11-8.51h.02c17.46-2.94,32.87-1.31,43.3,4.99,4.3,2.58,7.75,5.96,10.15,10.11,8.25,14.29,2.26,34.57-13.64,53.85,16.99-13.46,28.75-28.75,32.89-42.33,1.95-6.31,2.23-12.26.64-17.46-.47-1.55-1.11-3.03-1.92-4.43-2.45-4.24-3.7-8.84-3.86-13.38h0c-.23-6.19,1.56-12.28,5.12-17.26-2.79.45-5.52,1.4-8.08,2.88-4,2.31-7.08,5.62-9.15,9.5-1.05,1.95-1.84,4.03-2.34,6.21-.16.67-.29,1.33-.39,2-.23-.73-.4-1.48-.54-2.21-.43-2.24-.48-4.51-.16-6.73.85-6.1,4.43-11.76,10.2-15.09,4.16-2.4,8.8-3.21,13.21-2.61,1.63.22,5.1,2.23,8.96,2.21,2.56-.02,29.09-16.26,31.4-14.7Z"/>
      <path class="cls-2" d="M74.64,66.54c3.22,1.88,5.22,5.35,5.24,9.07.05,8.06-4.4,17.72-12.32,27.54,0-.02,0-.03,0-.04.02-.06.02-.11.01-.17,4.2-8.61,5.07-16.54,1.82-22.66-.08-.16-.17-.33-.27-.5s-.19-.34-.3-.48c-3.68-5.88-10.98-9.09-20.54-9.76h-.03c-3.54-1.86-7.51-3.34-11.84-4.44,15.99-3.87,29.79-3.5,38.23,1.43Z"/>
      <path class="cls-2" d="M137.6,93.5c-3.25-3.45-4.87-8.31-4.87-14.56v-8.15c0-6.31,1.71-11.2,5.13-14.65,3.42-3.45,8.35-5.18,14.79-5.18h2.3c6.49,0,11.44,1.71,14.83,5.14,3.39,3.42,5.09,8.32,5.09,14.7v45.42h-9.74v-17.71l.27-4.51c-2.66,3.13-6.43,4.69-11.33,4.69h-3.01c-5.73,0-10.21-1.73-13.46-5.18ZM162.53,86.81c1.74-1.83,2.61-4.43,2.61-7.79v-8.23c0-3.42-.87-6.05-2.61-7.88-1.74-1.83-4.29-2.74-7.66-2.74h-2.12c-3.25,0-5.75.92-7.52,2.74-1.77,1.83-2.66,4.46-2.66,7.88v8.23c0,3.36.89,5.96,2.66,7.79,1.77,1.83,4.28,2.75,7.52,2.75h2.12c3.36,0,5.92-.92,7.66-2.75Z"/>
      <path class="cls-1" d="M186.56,93.63c-3.42-3.42-5.13-8.32-5.13-14.7v-8.15c0-6.31,1.71-11.18,5.13-14.61s8.35-5.14,14.79-5.14h2.12c6.37,0,11.27,1.71,14.7,5.14,3.42,3.42,5.14,8.29,5.14,14.61v8.15c0,6.37-1.71,11.27-5.14,14.7-3.42,3.42-8.32,5.13-14.7,5.13h-2.12c-6.43,0-11.36-1.71-14.79-5.13ZM210.82,86.81c1.77-1.83,2.66-4.43,2.66-7.79v-8.23c0-3.42-.89-6.05-2.66-7.88-1.77-1.83-4.28-2.74-7.53-2.74h-1.86c-3.25,0-5.75.92-7.52,2.74-1.77,1.83-2.66,4.46-2.66,7.88v8.23c0,3.36.89,5.96,2.66,7.79,1.77,1.83,4.28,2.75,7.52,2.75h1.86c3.25,0,5.75-.92,7.53-2.75Z"/>
      <path class="cls-1" d="M240.39,34.58v46.57c0,2.54.65,4.38,1.95,5.53,1.3,1.15,3.39,1.73,6.29,1.73h3.01v9.12h-5.13c-5.43,0-9.43-1.31-12-3.94-2.57-2.63-3.85-6.98-3.85-13.06v-45.95h9.74Z"/>
      <path class="cls-1" d="M257.21,35.2h9.83v10.62h-9.83v-10.62ZM257.3,52.2h9.74v45.33h-9.74v-45.33Z"/>
      <path class="cls-1" d="M280.14,93.63c-3.36-3.42-5.05-8.32-5.05-14.7v-44.36h9.74v16.64l-.27,4.52c2.54-3.13,6.31-4.69,11.33-4.69h2.92c5.72,0,10.23,1.73,13.5,5.18,3.28,3.45,4.91,8.31,4.91,14.56v8.15c0,6.37-1.71,11.27-5.13,14.7-3.42,3.42-8.35,5.13-14.79,5.13h-2.39c-6.49,0-11.42-1.71-14.79-5.13ZM304.75,86.81c1.77-1.83,2.66-4.43,2.66-7.79v-8.23c0-3.42-.89-6.05-2.66-7.88-1.77-1.83-4.28-2.74-7.53-2.74h-2.21c-3.31,0-5.83.92-7.57,2.74-1.74,1.83-2.61,4.46-2.61,7.88v8.23c0,3.36.87,5.96,2.61,7.79,1.74,1.83,4.26,2.75,7.57,2.75h2.21c3.25,0,5.75-.92,7.53-2.75Z"/>
      <path class="cls-1" d="M328.39,93.63c-3.42-3.42-5.13-8.32-5.13-14.7v-8.15c0-6.31,1.71-11.18,5.13-14.61s8.35-5.14,14.79-5.14h1.86c6.38,0,11.27,1.71,14.7,5.14,3.42,3.42,5.13,8.29,5.13,14.61v8.15h-31.96v.53c0,3.36.89,5.96,2.66,7.79,1.77,1.83,4.28,2.74,7.53,2.74h1.95c2.42,0,4.43-.5,6.02-1.5,1.59-1,2.71-2.42,3.36-4.25h10c-.89,4.66-2.98,8.25-6.29,10.76-3.31,2.51-7.67,3.76-13.1,3.76h-1.86c-6.43,0-11.36-1.71-14.79-5.13ZM355.31,71.14v-.89c0-3.42-.87-6.03-2.61-7.83-1.74-1.8-4.26-2.7-7.57-2.7h-2.04c-3.31,0-5.83.9-7.57,2.7-1.74,1.8-2.61,4.41-2.61,7.83v.89h22.4Z"/>
      <path class="cls-1" d="M398.33,61.4h-6.64c-2.95,0-5.39,1.02-7.3,3.05-1.92,2.04-2.88,4.62-2.88,7.75v25.32h-9.74v-26.29c0-6.08,1.74-10.77,5.22-14.08,3.48-3.3,8.32-4.96,14.52-4.96h6.82v9.21Z"/>
      <path class="cls-2" d="M232.11,140.78c-1.82-1.82-2.73-4.43-2.73-7.82v-4.33c0-3.36.91-5.95,2.73-7.77s4.44-2.73,7.86-2.73h.99c3.39,0,6,.91,7.82,2.73,1.82,1.82,2.73,4.41,2.73,7.77v4.33h-17v.28c0,1.79.47,3.17,1.41,4.14.94.97,2.28,1.46,4,1.46h1.04c1.29,0,2.35-.27,3.2-.8s1.44-1.29,1.79-2.26h5.32c-.47,2.48-1.59,4.39-3.34,5.72-1.76,1.33-4.08,2-6.97,2h-.99c-3.42,0-6.04-.91-7.86-2.73ZM246.43,128.82v-.47c0-1.82-.46-3.21-1.39-4.17-.93-.96-2.27-1.44-4.03-1.44h-1.08c-1.76,0-3.1.48-4.03,1.44-.93.96-1.39,2.35-1.39,4.17v.47h11.91Z"/>
      <path class="cls-1" d="M275.2,118.74l-7.96,11.73,8.52,12.38h-6.31l-5.7-8.62-5.7,8.62h-6.26l8.48-12.38-7.91-11.73h6.22l5.18,8.1,5.18-8.1h6.26Z"/>
      <path class="cls-1" d="M282.41,113.09v5.65h7.35v4.66h-7.35v9.61c0,3.39,1.9,5.09,5.7,5.09h2.21v4.76h-3.01c-3.17,0-5.64-.79-7.42-2.38-1.77-1.58-2.66-3.95-2.66-7.09v-20.3h5.18Z"/>
      <path class="cls-1" d="M294.6,140.78c-1.82-1.82-2.73-4.43-2.73-7.82v-4.33c0-3.36.91-5.95,2.73-7.77s4.44-2.73,7.86-2.73h.99c3.39,0,6,.91,7.82,2.73,1.82,1.82,2.73,4.41,2.73,7.77v4.33h-17v.28c0,1.79.47,3.17,1.41,4.14.94.97,2.28,1.46,4,1.46h1.04c1.29,0,2.35-.27,3.2-.8s1.44-1.29,1.79-2.26h5.32c-.47,2.48-1.59,4.39-3.34,5.72-1.76,1.33-4.08,2-6.97,2h-.99c-3.42,0-6.04-.91-7.86-2.73ZM308.92,128.82v-.47c0-1.82-.46-3.21-1.39-4.17-.93-.96-2.27-1.44-4.03-1.44h-1.08c-1.76,0-3.1.48-4.03,1.44-.93.96-1.39,2.35-1.39,4.17v.47h11.91Z"/>
      <path class="cls-1" d="M320.29,120.77c1.74-1.76,4.28-2.64,7.6-2.64h1.27c3.3,0,5.82.88,7.58,2.64,1.76,1.76,2.64,4.32,2.64,7.68v14.41h-5.18v-14.32c0-1.76-.45-3.1-1.34-4.03-.89-.93-2.19-1.39-3.88-1.39h-.89c-1.7,0-2.99.46-3.89,1.39-.89.93-1.34,2.27-1.34,4.03v14.32h-5.18v-14.41c0-3.36.87-5.92,2.61-7.68Z"/>
      <path class="cls-1" d="M344.78,141.32c-1.62-1.46-2.43-3.37-2.43-5.72h5.18c.03,1.07.37,1.88,1.01,2.45.64.56,1.78.85,3.41.85h1.88c1.57,0,2.7-.22,3.39-.66.69-.44,1.04-1.08,1.04-1.93s-.29-1.54-.87-1.98c-.58-.44-1.47-.77-2.66-.99l-4.9-.99c-2.35-.47-4.13-1.23-5.32-2.28-1.19-1.05-1.79-2.69-1.79-4.92s.81-3.96,2.42-5.18,3.9-1.84,6.85-1.84h1.98c2.92,0,5.18.72,6.78,2.17,1.6,1.44,2.4,3.3,2.4,5.56h-5.23c0-.97-.31-1.74-.94-2.31-.63-.57-1.74-.85-3.34-.85h-1.32c-1.54,0-2.65.21-3.34.64s-1.04,1.08-1.04,1.95c0,.82.27,1.44.82,1.88.55.44,1.41.77,2.57.99l4.99.99c2.32.44,4.1,1.19,5.32,2.26,1.22,1.07,1.84,2.73,1.84,4.99s-.81,4.01-2.42,5.25c-1.62,1.24-3.93,1.86-6.95,1.86h-2.5c-2.95,0-5.24-.73-6.85-2.19Z"/>
      <path class="cls-1" d="M366.65,109.7h5.23v5.65h-5.23v-5.65ZM366.7,118.74h5.18v24.11h-5.18v-24.11Z"/>
      <path class="cls-1" d="M378.42,140.78c-1.82-1.82-2.73-4.43-2.73-7.82v-4.33c0-3.36.91-5.95,2.73-7.77s4.44-2.73,7.86-2.73h1.13c3.39,0,6,.91,7.82,2.73,1.82,1.82,2.73,4.41,2.73,7.77v4.33c0,3.39-.91,6-2.73,7.82s-4.43,2.73-7.82,2.73h-1.13c-3.42,0-6.04-.91-7.86-2.73ZM391.32,137.16c.94-.97,1.41-2.35,1.41-4.14v-4.38c0-1.82-.47-3.22-1.41-4.19-.94-.97-2.28-1.46-4-1.46h-.99c-1.73,0-3.06.49-4,1.46-.94.97-1.41,2.37-1.41,4.19v4.38c0,1.79.47,3.17,1.41,4.14.94.97,2.28,1.46,4,1.46h.99c1.73,0,3.06-.49,4-1.46Z"/>
      <path class="cls-1" d="M404.25,120.77c1.74-1.76,4.28-2.64,7.6-2.64h1.27c3.3,0,5.82.88,7.58,2.64,1.76,1.76,2.64,4.32,2.64,7.68v14.41h-5.18v-14.32c0-1.76-.45-3.1-1.34-4.03-.89-.93-2.19-1.39-3.88-1.39h-.9c-1.7,0-2.99.46-3.88,1.39-.89.93-1.34,2.27-1.34,4.03v14.32h-5.18v-14.41c0-3.36.87-5.92,2.61-7.68Z"/>
      <path class="cls-1" d="M428.74,141.32c-1.62-1.46-2.43-3.37-2.43-5.72h5.18c.03,1.07.37,1.88,1.01,2.45.64.56,1.78.85,3.41.85h1.88c1.57,0,2.7-.22,3.39-.66.69-.44,1.04-1.08,1.04-1.93s-.29-1.54-.87-1.98c-.58-.44-1.47-.77-2.66-.99l-4.9-.99c-2.35-.47-4.13-1.23-5.32-2.28-1.19-1.05-1.79-2.69-1.79-4.92s.81-3.96,2.42-5.18,3.9-1.84,6.85-1.84h1.98c2.92,0,5.18.72,6.78,2.17,1.6,1.44,2.4,3.3,2.4,5.56h-5.23c0-.97-.31-1.74-.94-2.31-.63-.57-1.74-.85-3.34-.85h-1.32c-1.54,0-2.65.21-3.34.64s-1.04,1.08-1.04,1.95c0,.82.27,1.44.82,1.88.55.44,1.41.77,2.57.99l4.99.99c2.32.44,4.1,1.19,5.32,2.26,1.22,1.07,1.84,2.73,1.84,4.99s-.81,4.01-2.42,5.25c-1.62,1.24-3.93,1.86-6.95,1.86h-2.5c-2.95,0-5.24-.73-6.85-2.19Z"/>
    </g>
  </g>
</svg>