<?xml version="1.0" encoding="UTF-8"?>
<svg xmlns="http://www.w3.org/2000/svg" version="1.1" viewBox="0 0 423.35 150">
  <defs>
    <style>
      .cls-1 {
        fill: #3c3c3b;
      }

      .cls-2 {
        fill: #009fe3;
      }
    </style>
  </defs>
  <!-- Generator: Adobe Illustrator 28.7.1, SVG Export Plug-In . SVG Version: 1.2.0 Build 142)  -->
  <g>
    <g id="Warstwa_1">
      <g>
        <path class="cls-1" d="M152.89,5.4l-31.36,17.71c-.85.49-1.65,1.03-2.4,1.62-8.22,6.37-10.68,18.02-5.34,27.28,1.2,2.08,2.1,4.28,2.71,6.59.63,2.27.97,4.67,1.02,7.16h0c.13,4.21-.51,8.63-1.87,13.19-6.13,20.85-26.93,44.51-56.57,61.63-2.53,1.46-5.05,2.84-7.6,4.13.55-.77,1.08-1.55,1.6-2.34,2.29-3.39,4.35-6.76,6.18-10.1h.01c1.49-2.71,2.81-5.37,3.97-8.02,0,0,.01,0,0-.02,19.44-19.46,28.06-40.62,20-54.59-1.29-2.23-2.95-4.18-4.94-5.86-10.45-8.85-30.01-10.09-52.33-4.12,0-.01-.02,0-.02,0-2.87-.31-5.84-.5-8.92-.56h-.01c-3.81-.07-7.76.02-11.84.31,10.18-4.2,20.23-7.1,29.67-8.68h.02c17.8-3,33.51-1.34,44.14,5.08,4.38,2.63,7.9,6.07,10.35,10.31,8.41,14.57,2.3,35.24-13.9,54.89,17.31-13.72,29.3-29.31,33.53-43.14,1.98-6.44,2.28-12.5.65-17.8-.47-1.58-1.13-3.09-1.96-4.52-2.5-4.32-3.77-9.01-3.93-13.64h0c-.23-6.31,1.59-12.52,5.22-17.6-2.85.46-5.63,1.42-8.24,2.93-4.08,2.35-7.21,5.73-9.32,9.68-1.07,1.98-1.88,4.11-2.39,6.33-.16.68-.29,1.36-.4,2.04-.23-.74-.41-1.5-.55-2.25-.44-2.29-.49-4.6-.17-6.86.87-6.22,4.51-11.98,10.4-15.38,4.24-2.45,8.97-3.27,13.47-2.66,1.66.23,5.2,2.28,9.13,2.25,2.61-.02,29.65-16.58,32.01-14.98Z"/>
        <path class="cls-2" d="M71.78,65.98c3.28,1.92,5.32,5.45,5.35,9.25.05,8.21-4.49,18.06-12.56,28.07,0-.02,0-.03,0-.04.02-.06.02-.11.01-.17,4.28-8.77,5.17-16.86,1.85-23.1-.08-.17-.18-.34-.28-.51s-.2-.34-.3-.49c-3.75-5.99-11.19-9.27-20.93-9.94h-.04c-3.61-1.9-7.65-3.4-12.07-4.52,16.3-3.95,30.37-3.56,38.97,1.46Z"/>
      </g>
      <g>
        <path class="cls-2" d="M135.96,93.46c-3.31-3.52-4.96-8.47-4.96-14.84v-8.3c0-6.44,1.74-11.42,5.23-14.94,3.49-3.52,8.51-5.28,15.07-5.28h2.35c6.62,0,11.66,1.75,15.12,5.23,3.46,3.49,5.19,8.48,5.19,14.98v46.3h-9.93v-18.05l.27-4.6c-2.71,3.19-6.56,4.78-11.55,4.78h-3.07c-5.84,0-10.41-1.76-13.72-5.28ZM161.36,86.65c1.77-1.86,2.66-4.51,2.66-7.94v-8.39c0-3.49-.89-6.17-2.66-8.03-1.78-1.86-4.38-2.8-7.81-2.8h-2.17c-3.31,0-5.87.93-7.67,2.8-1.81,1.87-2.71,4.54-2.71,8.03v8.39c0,3.43.9,6.08,2.71,7.94,1.8,1.87,4.36,2.8,7.67,2.8h2.17c3.43,0,6.03-.93,7.81-2.8Z"/>
        <path class="cls-1" d="M185.87,93.59c-3.49-3.49-5.23-8.48-5.23-14.98v-8.3c0-6.44,1.74-11.4,5.23-14.89,3.49-3.49,8.51-5.23,15.07-5.23h2.17c6.5,0,11.49,1.75,14.98,5.23,3.49,3.49,5.23,8.45,5.23,14.89v8.3c0,6.5-1.75,11.49-5.23,14.98s-8.48,5.23-14.98,5.23h-2.17c-6.56,0-11.58-1.74-15.07-5.23ZM210.59,86.65c1.81-1.86,2.71-4.51,2.71-7.94v-8.39c0-3.49-.9-6.17-2.71-8.03-1.8-1.86-4.36-2.8-7.67-2.8h-1.9c-3.31,0-5.87.93-7.67,2.8-1.81,1.87-2.71,4.54-2.71,8.03v8.39c0,3.43.9,6.08,2.71,7.94,1.8,1.87,4.36,2.8,7.67,2.8h1.9c3.31,0,5.87-.93,7.67-2.8Z"/>
        <path class="cls-1" d="M240.73,33.4v47.47c0,2.59.66,4.47,1.99,5.64,1.32,1.17,3.46,1.76,6.41,1.76h3.07v9.29h-5.23c-5.54,0-9.61-1.34-12.23-4.02-2.62-2.68-3.93-7.11-3.93-13.31v-46.84h9.93Z"/>
        <path class="cls-1" d="M257.88,34.03h10.02v10.83h-10.02v-10.83ZM257.97,51.36h9.93v46.21h-9.93v-46.21Z"/>
        <path class="cls-1" d="M281.25,93.59c-3.43-3.49-5.14-8.48-5.14-14.98v-45.21h9.93v16.97l-.27,4.6c2.59-3.19,6.44-4.78,11.55-4.78h2.98c5.83,0,10.42,1.76,13.76,5.28,3.34,3.52,5.01,8.47,5.01,14.85v8.3c0,6.5-1.75,11.49-5.23,14.98s-8.51,5.23-15.07,5.23h-2.44c-6.62,0-11.64-1.74-15.07-5.23ZM306.34,86.65c1.8-1.86,2.71-4.51,2.71-7.94v-8.39c0-3.49-.9-6.17-2.71-8.03-1.81-1.86-4.36-2.8-7.67-2.8h-2.26c-3.37,0-5.94.93-7.72,2.8-1.78,1.87-2.66,4.54-2.66,8.03v8.39c0,3.43.89,6.08,2.66,7.94,1.77,1.87,4.35,2.8,7.72,2.8h2.26c3.31,0,5.87-.93,7.67-2.8Z"/>
        <path class="cls-1" d="M330.44,93.59c-3.49-3.49-5.23-8.48-5.23-14.98v-8.3c0-6.44,1.74-11.4,5.23-14.89,3.49-3.49,8.51-5.23,15.07-5.23h1.9c6.5,0,11.49,1.75,14.98,5.23,3.49,3.49,5.23,8.45,5.23,14.89v8.3h-32.58v.54c0,3.43.9,6.08,2.71,7.94,1.8,1.87,4.36,2.8,7.67,2.8h1.99c2.47,0,4.51-.51,6.14-1.53,1.62-1.02,2.77-2.47,3.43-4.33h10.2c-.9,4.75-3.04,8.41-6.41,10.96-3.37,2.56-7.82,3.84-13.36,3.84h-1.9c-6.56,0-11.58-1.74-15.07-5.23ZM357.87,70.67v-.9c0-3.49-.89-6.15-2.66-7.99-1.77-1.83-4.35-2.75-7.72-2.75h-2.08c-3.37,0-5.94.92-7.72,2.75-1.78,1.84-2.66,4.5-2.66,7.99v.9h22.83Z"/>
        <path class="cls-1" d="M401.73,60.75h-6.77c-3.01,0-5.49,1.04-7.44,3.11-1.96,2.08-2.93,4.71-2.93,7.9v25.81h-9.93v-26.8c0-6.2,1.77-10.98,5.32-14.35,3.55-3.37,8.48-5.05,14.8-5.05h6.95v9.39Z"/>
      </g>
    </g>
  </g>
</svg>